<svg width="75" height="24" viewBox="0 0 75 24" fill="none" xmlns="http://www.w3.org/2000/svg">
<path d="M9.32031 10.375C9.23177 9.89583 9.04688 9.48698 8.76562 9.14844C8.48958 8.80469 8.14323 8.54427 7.72656 8.36719C7.3151 8.1901 6.86979 8.10156 6.39062 8.10156C5.73958 8.10156 5.15625 8.26823 4.64062 8.60156C4.125 8.92969 3.71875 9.41406 3.42188 10.0547C3.13021 10.6901 2.98438 11.4531 2.98438 12.3438C2.98438 13.2448 3.13021 14.013 3.42188 14.6484C3.71875 15.2839 4.125 15.7656 4.64062 16.0938C5.15625 16.4219 5.73698 16.5859 6.38281 16.5859C6.86198 16.5859 7.30469 16.4974 7.71094 16.3203C8.11719 16.1432 8.46354 15.888 8.75 15.5547C9.03646 15.2161 9.22656 14.8151 9.32031 14.3516L11.0469 14.3594C10.9271 15.0938 10.6536 15.75 10.2266 16.3281C9.80469 16.9062 9.26302 17.3568 8.60156 17.6797C7.9401 17.9974 7.19792 18.1562 6.375 18.1562C5.39062 18.1562 4.51302 17.9219 3.74219 17.4531C2.97656 16.9844 2.375 16.3099 1.9375 15.4297C1.50521 14.5495 1.28906 13.5208 1.28906 12.3438C1.28906 11.1562 1.50781 10.125 1.94531 9.25C2.38281 8.375 2.98438 7.70312 3.75 7.23438C4.52083 6.76562 5.39583 6.53125 6.375 6.53125C7.17188 6.53125 7.90104 6.6849 8.5625 6.99219C9.22917 7.29427 9.77865 7.73438 10.2109 8.3125C10.6432 8.89062 10.9219 9.57812 11.0469 10.375H9.32031ZM17.5706 14.1562C17.4352 14.1562 17.0107 14.1823 16.2972 14.2344L15.4534 14.2969C14.8909 14.3385 14.4534 14.4688 14.1409 14.6875C13.8336 14.9062 13.68 15.2188 13.68 15.625C13.68 15.8906 13.7477 16.1146 13.8831 16.2969C14.0185 16.474 14.2086 16.612 14.4534 16.7109C14.6982 16.8047 14.9769 16.8516 15.2894 16.8516C15.7321 16.8516 16.1149 16.7656 16.4378 16.5938C16.7659 16.4167 17.0185 16.1823 17.1956 15.8906C17.3727 15.5938 17.4613 15.276 17.4613 14.9375L17.4534 12.2656C17.4534 11.9427 17.3883 11.6693 17.2581 11.4453C17.1331 11.2161 16.9404 11.0443 16.68 10.9297C16.4196 10.8099 16.1019 10.75 15.7269 10.75C15.2529 10.75 14.8649 10.849 14.5628 11.0469C14.2659 11.2396 14.0732 11.5 13.9847 11.8281H12.3128C12.3701 11.3542 12.5472 10.9349 12.8441 10.5703C13.1409 10.2057 13.542 9.92188 14.0472 9.71875C14.5524 9.51042 15.1305 9.40625 15.7816 9.40625C16.3284 9.40625 16.8467 9.48958 17.3363 9.65625C17.831 9.81771 18.2503 10.1198 18.5941 10.5625C18.9378 11 19.1097 11.6016 19.1097 12.3672V18H17.4925V16.8359H17.43C17.3154 17.0703 17.1488 17.2891 16.93 17.4922C16.7113 17.6953 16.43 17.862 16.0863 17.9922C15.7477 18.1224 15.3571 18.1875 14.9144 18.1875C14.3675 18.1875 13.8779 18.0859 13.4456 17.8828C13.0133 17.6797 12.6722 17.3828 12.4222 16.9922C12.1722 16.6016 12.0472 16.1406 12.0472 15.6094C12.0472 14.724 12.3441 14.0938 12.9378 13.7188C13.5368 13.3438 14.2972 13.1276 15.2191 13.0703C15.3441 13.0547 15.8389 13.0234 16.7034 12.9766L17.555 12.9453L17.5706 14.1562ZM20.8209 9.51562H22.4303V10.875H22.5241C22.6751 10.4062 22.9459 10.0417 23.3366 9.78125C23.7272 9.51562 24.1673 9.38281 24.6569 9.38281C24.9173 9.38281 25.1569 9.39844 25.3756 9.42969V11.0234C25.3079 10.9974 25.1855 10.974 25.0084 10.9531C24.8314 10.9271 24.6621 10.9141 24.5006 10.9141C24.1256 10.9141 23.7845 10.9974 23.4772 11.1641C23.1699 11.3255 22.9277 11.5521 22.7506 11.8438C22.5735 12.1354 22.485 12.4635 22.485 12.8281V18H20.8209V9.51562ZM29.6884 18.1719C28.8707 18.1719 28.1546 17.9922 27.54 17.6328C26.9306 17.2734 26.4619 16.7656 26.1338 16.1094C25.8056 15.4531 25.6416 14.6901 25.6416 13.8203C25.6416 12.9505 25.8056 12.1823 26.1338 11.5156C26.4619 10.8438 26.9228 10.3255 27.5166 9.96094C28.1103 9.59115 28.7952 9.40625 29.5713 9.40625C30.2588 9.40625 30.8864 9.55469 31.4541 9.85156C32.0218 10.1432 32.4775 10.6094 32.8213 11.25C33.165 11.8854 33.3369 12.6901 33.3369 13.6641V14.25H26.5791V13.0078H31.7041C31.7041 12.5755 31.6155 12.1927 31.4384 11.8594C31.2666 11.5208 31.0192 11.2552 30.6963 11.0625C30.3733 10.8698 30.0035 10.7734 29.5869 10.7734C29.1338 10.7734 28.7353 10.8828 28.3916 11.1016C28.0478 11.3203 27.7796 11.6146 27.5869 11.9844C27.3942 12.3542 27.2978 12.75 27.2978 13.1719V14.1406C27.2978 14.6979 27.3968 15.1771 27.5947 15.5781C27.7978 15.9792 28.0791 16.2839 28.4384 16.4922C28.803 16.7005 29.2223 16.8047 29.6963 16.8047C29.9983 16.8047 30.2718 16.763 30.5166 16.6797C30.7614 16.5911 30.9697 16.4818 31.1416 16.3516C31.3134 16.2161 31.4463 16.0573 31.54 15.875H33.2353C33.1103 16.3333 32.8864 16.7344 32.5634 17.0781C32.2405 17.4219 31.8317 17.6901 31.3369 17.8828C30.8473 18.0755 30.2978 18.1719 29.6884 18.1719ZM38.3216 18.1719C37.5039 18.1719 36.7877 17.9922 36.1731 17.6328C35.5638 17.2734 35.095 16.7656 34.7669 16.1094C34.4388 15.4531 34.2747 14.6901 34.2747 13.8203C34.2747 12.9505 34.4388 12.1823 34.7669 11.5156C35.095 10.8438 35.5559 10.3255 36.1497 9.96094C36.7434 9.59115 37.4283 9.40625 38.2044 9.40625C38.8919 9.40625 39.5195 9.55469 40.0872 9.85156C40.6549 10.1432 41.1106 10.6094 41.4544 11.25C41.7981 11.8854 41.97 12.6901 41.97 13.6641V14.25H35.2122V13.0078H40.3372C40.3372 12.5755 40.2486 12.1927 40.0716 11.8594C39.8997 11.5208 39.6523 11.2552 39.3294 11.0625C39.0065 10.8698 38.6367 10.7734 38.22 10.7734C37.7669 10.7734 37.3684 10.8828 37.0247 11.1016C36.6809 11.3203 36.4127 11.6146 36.22 11.9844C36.0273 12.3542 35.9309 12.75 35.9309 13.1719V14.1406C35.9309 14.6979 36.0299 15.1771 36.2278 15.5781C36.4309 15.9792 36.7122 16.2839 37.0716 16.4922C37.4361 16.7005 37.8554 16.8047 38.3294 16.8047C38.6315 16.8047 38.9049 16.763 39.1497 16.6797C39.3945 16.5911 39.6028 16.4818 39.7747 16.3516C39.9466 16.2161 40.0794 16.0573 40.1731 15.875H41.8684C41.7434 16.3333 41.5195 16.7344 41.1966 17.0781C40.8736 17.4219 40.4648 17.6901 39.97 17.8828C39.4804 18.0755 38.9309 18.1719 38.3216 18.1719ZM43.2984 9.51562H44.9078V10.875H45.0016C45.1526 10.4062 45.4234 10.0417 45.8141 9.78125C46.2047 9.51562 46.6448 9.38281 47.1344 9.38281C47.3948 9.38281 47.6344 9.39844 47.8531 9.42969V11.0234C47.7854 10.9974 47.663 10.974 47.4859 10.9531C47.3089 10.9271 47.1396 10.9141 46.9781 10.9141C46.6031 10.9141 46.262 10.9974 45.9547 11.1641C45.6474 11.3255 45.4052 11.5521 45.2281 11.8438C45.051 12.1354 44.9625 12.4635 44.9625 12.8281V18H43.2984V9.51562Z" fill="white"/>
<path d="M57.3299 7.82982C57.3302 7.37168 57.7016 7.00026 58.1598 7L66.6702 7C67.1283 7.00024 67.4998 7.37166 67.5 7.82982L67.5 16.3402C67.4997 16.7984 67.1283 17.1698 66.6702 17.1701C66.2117 17.1701 65.8396 16.798 65.8396 16.3395L65.8396 9.83414L57.9169 17.7568C57.5927 18.0811 57.0674 18.0811 56.7432 17.7568C56.4189 17.4326 56.4189 16.9073 56.7432 16.5831L64.6659 8.66036H58.1605C57.702 8.66036 57.3299 8.28832 57.3299 7.82982Z" fill="white"/>
</svg>
