<svg width="56" height="13" viewBox="0 0 56 13" fill="none" xmlns="http://www.w3.org/2000/svg">
<path d="M8.32031 4.375C8.23177 3.89583 8.04688 3.48698 7.76562 3.14844C7.48958 2.80469 7.14323 2.54427 6.72656 2.36719C6.3151 2.1901 5.86979 2.10156 5.39062 2.10156C4.73958 2.10156 4.15625 2.26823 3.64062 2.60156C3.125 2.92969 2.71875 3.41406 2.42188 4.05469C2.13021 4.6901 1.98438 5.45312 1.98438 6.34375C1.98438 7.24479 2.13021 8.01302 2.42188 8.64844C2.71875 9.28385 3.125 9.76562 3.64062 10.0938C4.15625 10.4219 4.73698 10.5859 5.38281 10.5859C5.86198 10.5859 6.30469 10.4974 6.71094 10.3203C7.11719 10.1432 7.46354 9.88802 7.75 9.55469C8.03646 9.21615 8.22656 8.8151 8.32031 8.35156L10.0469 8.35938C9.92708 9.09375 9.65365 9.75 9.22656 10.3281C8.80469 10.9062 8.26302 11.3568 7.60156 11.6797C6.9401 11.9974 6.19792 12.1562 5.375 12.1562C4.39062 12.1562 3.51302 11.9219 2.74219 11.4531C1.97656 10.9844 1.375 10.3099 0.9375 9.42969C0.505208 8.54948 0.289062 7.52083 0.289062 6.34375C0.289062 5.15625 0.507812 4.125 0.945312 3.25C1.38281 2.375 1.98438 1.70312 2.75 1.23438C3.52083 0.765625 4.39583 0.53125 5.375 0.53125C6.17188 0.53125 6.90104 0.684896 7.5625 0.992188C8.22917 1.29427 8.77865 1.73438 9.21094 2.3125C9.64323 2.89062 9.92188 3.57812 10.0469 4.375H8.32031ZM15.0394 12.1719C14.2477 12.1719 13.5498 11.9896 12.9456 11.625C12.3467 11.2604 11.8831 10.7474 11.555 10.0859C11.2269 9.42448 11.0628 8.66146 11.0628 7.79688C11.0628 6.92188 11.2269 6.15365 11.555 5.49219C11.8831 4.83073 12.3467 4.31771 12.9456 3.95312C13.5498 3.58854 14.2477 3.40625 15.0394 3.40625C15.8258 3.40625 16.5185 3.58854 17.1175 3.95312C17.7165 4.31771 18.1774 4.83073 18.5003 5.49219C18.8232 6.15365 18.9847 6.92188 18.9847 7.79688C18.9847 8.66146 18.8232 9.42448 18.5003 10.0859C18.1774 10.7474 17.7165 11.2604 17.1175 11.625C16.5185 11.9896 15.8258 12.1719 15.0394 12.1719ZM15.0394 10.7812C15.5394 10.7812 15.9586 10.6484 16.2972 10.3828C16.6357 10.112 16.8883 9.7526 17.055 9.30469C17.2217 8.85156 17.305 8.34635 17.305 7.78906C17.305 7.23177 17.2217 6.72656 17.055 6.27344C16.8883 5.82031 16.6357 5.46094 16.2972 5.19531C15.9586 4.92448 15.5394 4.78906 15.0394 4.78906C14.5394 4.78906 14.1175 4.92448 13.7738 5.19531C13.43 5.46094 13.1722 5.82031 13.0003 6.27344C12.8284 6.72656 12.7425 7.23177 12.7425 7.78906C12.7425 8.34635 12.8284 8.85156 13.0003 9.30469C13.1722 9.7526 13.43 10.112 13.7738 10.3828C14.1175 10.6484 14.5394 10.7812 15.0394 10.7812ZM22.0006 12H20.3366V3.51562H21.9303V4.89844H22.0397C22.248 4.42448 22.5605 4.05729 22.9772 3.79688C23.3991 3.53646 23.9225 3.40625 24.5475 3.40625C25.1308 3.40625 25.636 3.52865 26.0631 3.77344C26.4954 4.01302 26.8288 4.3724 27.0631 4.85156C27.3027 5.33073 27.4225 5.91406 27.4225 6.60156V12H25.7584V6.79688C25.7584 6.39062 25.6881 6.04167 25.5475 5.75C25.4069 5.45833 25.2038 5.23698 24.9381 5.08594C24.6725 4.92969 24.3496 4.85156 23.9694 4.85156C23.584 4.85156 23.2428 4.9349 22.9459 5.10156C22.6491 5.26302 22.4173 5.50521 22.2506 5.82812C22.084 6.14583 22.0006 6.52604 22.0006 6.96875V12ZM33.0947 4.84375H28.4541V3.51562H33.0947V4.84375ZM31.3759 1.48438V9.50781C31.3759 9.8099 31.4202 10.0417 31.5088 10.2031C31.5973 10.3646 31.7145 10.4766 31.8603 10.5391C32.0061 10.6016 32.1806 10.6328 32.3838 10.6328C32.6338 10.6328 32.9124 10.6224 33.2197 10.6016V12.0391C32.9228 12.0859 32.5791 12.1094 32.1884 12.1094C31.7353 12.1094 31.3186 12.026 30.9384 11.8594C30.5634 11.6875 30.2614 11.4323 30.0322 11.0938C29.8082 10.75 29.6963 10.3333 29.6963 9.84375V1.48438H31.3759ZM39.5325 8.15625C39.3971 8.15625 38.9726 8.18229 38.2591 8.23438L37.4153 8.29688C36.8528 8.33854 36.4153 8.46875 36.1028 8.6875C35.7955 8.90625 35.6419 9.21875 35.6419 9.625C35.6419 9.89062 35.7096 10.1146 35.845 10.2969C35.9804 10.474 36.1705 10.612 36.4153 10.7109C36.6601 10.8047 36.9388 10.8516 37.2513 10.8516C37.694 10.8516 38.0768 10.7656 38.3997 10.5938C38.7278 10.4167 38.9804 10.1823 39.1575 9.89062C39.3346 9.59375 39.4231 9.27604 39.4231 8.9375L39.4153 6.26562C39.4153 5.94271 39.3502 5.66927 39.22 5.44531C39.095 5.21615 38.9023 5.04427 38.6419 4.92969C38.3815 4.8099 38.0638 4.75 37.6888 4.75C37.2148 4.75 36.8268 4.84896 36.5247 5.04688C36.2278 5.23958 36.0351 5.5 35.9466 5.82812H34.2747C34.332 5.35417 34.5091 4.9349 34.8059 4.57031C35.1028 4.20573 35.5039 3.92188 36.0091 3.71875C36.5143 3.51042 37.0924 3.40625 37.7434 3.40625C38.2903 3.40625 38.8085 3.48958 39.2981 3.65625C39.7929 3.81771 40.2122 4.11979 40.5559 4.5625C40.8997 5 41.0716 5.60156 41.0716 6.36719V12H39.4544V10.8359H39.3919C39.2773 11.0703 39.1106 11.2891 38.8919 11.4922C38.6731 11.6953 38.3919 11.862 38.0481 11.9922C37.7096 12.1224 37.319 12.1875 36.8763 12.1875C36.3294 12.1875 35.8398 12.0859 35.4075 11.8828C34.9752 11.6797 34.6341 11.3828 34.3841 10.9922C34.1341 10.6016 34.0091 10.1406 34.0091 9.60938C34.0091 8.72396 34.3059 8.09375 34.8997 7.71875C35.4986 7.34375 36.2591 7.1276 37.1809 7.07031C37.3059 7.05469 37.8007 7.02344 38.6653 6.97656L39.5169 6.94531L39.5325 8.15625ZM46.3688 12.1719C45.5615 12.1719 44.8557 11.9844 44.2516 11.6094C43.6526 11.2344 43.1917 10.7161 42.8688 10.0547C42.551 9.39323 42.3922 8.64062 42.3922 7.79688C42.3922 6.9375 42.5563 6.17708 42.8844 5.51562C43.2125 4.84896 43.6734 4.33073 44.2672 3.96094C44.8609 3.59115 45.551 3.40625 46.3375 3.40625C46.9833 3.40625 47.5615 3.52344 48.0719 3.75781C48.5823 3.99219 48.9911 4.32552 49.2984 4.75781C49.6057 5.1901 49.7906 5.6901 49.8531 6.25781H48.2281C48.1708 5.98698 48.0589 5.74219 47.8922 5.52344C47.7307 5.29948 47.5224 5.1224 47.2672 4.99219C47.012 4.86198 46.7151 4.79688 46.3766 4.79688C45.9182 4.79688 45.5146 4.91667 45.1656 5.15625C44.8219 5.39583 44.5536 5.73698 44.3609 6.17969C44.1682 6.6224 44.0719 7.14583 44.0719 7.75C44.0719 8.35938 44.1656 8.89062 44.3531 9.34375C44.5458 9.79167 44.8141 10.138 45.1578 10.3828C45.5016 10.6276 45.9078 10.75 46.3766 10.75C46.6891 10.75 46.9729 10.6953 47.2281 10.5859C47.4885 10.4714 47.7047 10.3047 47.8766 10.0859C48.0484 9.86719 48.1656 9.60677 48.2281 9.30469H49.8531C49.7906 9.85677 49.6083 10.349 49.3063 10.7812C49.0094 11.2135 48.6083 11.5547 48.1031 11.8047C47.5979 12.0495 47.0198 12.1719 46.3688 12.1719ZM55.0722 4.84375H50.4316V3.51562H55.0722V4.84375ZM53.3534 1.48438V9.50781C53.3534 9.8099 53.3977 10.0417 53.4863 10.2031C53.5748 10.3646 53.692 10.4766 53.8378 10.5391C53.9836 10.6016 54.1581 10.6328 54.3613 10.6328C54.6113 10.6328 54.8899 10.6224 55.1972 10.6016V12.0391C54.9003 12.0859 54.5566 12.1094 54.1659 12.1094C53.7128 12.1094 53.2961 12.026 52.9159 11.8594C52.5409 11.6875 52.2389 11.4323 52.0097 11.0938C51.7857 10.75 51.6738 10.3333 51.6738 9.84375V1.48438H53.3534Z" fill="white"/>
</svg>
