<svg width="79" height="16" viewBox="0 0 79 16" fill="none" xmlns="http://www.w3.org/2000/svg">
<path d="M0.65625 0.6875H7.75781V2.16406H2.375V5.60156H7.38281V7.07031H2.375V10.5234H7.8125V12H0.65625V0.6875ZM14.5081 8.15625C14.3727 8.15625 13.9482 8.18229 13.2347 8.23438L12.3909 8.29688C11.8284 8.33854 11.3909 8.46875 11.0784 8.6875C10.7711 8.90625 10.6175 9.21875 10.6175 9.625C10.6175 9.89062 10.6852 10.1146 10.8206 10.2969C10.956 10.474 11.1461 10.612 11.3909 10.7109C11.6357 10.8047 11.9144 10.8516 12.2269 10.8516C12.6696 10.8516 13.0524 10.7656 13.3753 10.5938C13.7034 10.4167 13.956 10.1823 14.1331 9.89062C14.3102 9.59375 14.3988 9.27604 14.3988 8.9375L14.3909 6.26562C14.3909 5.94271 14.3258 5.66927 14.1956 5.44531C14.0706 5.21615 13.8779 5.04427 13.6175 4.92969C13.3571 4.8099 13.0394 4.75 12.6644 4.75C12.1904 4.75 11.8024 4.84896 11.5003 5.04688C11.2034 5.23958 11.0107 5.5 10.9222 5.82812H9.25031C9.3076 5.35417 9.48469 4.9349 9.78156 4.57031C10.0784 4.20573 10.4795 3.92188 10.9847 3.71875C11.4899 3.51042 12.068 3.40625 12.7191 3.40625C13.2659 3.40625 13.7842 3.48958 14.2738 3.65625C14.7685 3.81771 15.1878 4.11979 15.5316 4.5625C15.8753 5 16.0472 5.60156 16.0472 6.36719V12H14.43V10.8359H14.3675C14.2529 11.0703 14.0863 11.2891 13.8675 11.4922C13.6488 11.6953 13.3675 11.862 13.0238 11.9922C12.6852 12.1224 12.2946 12.1875 11.8519 12.1875C11.305 12.1875 10.8154 12.0859 10.3831 11.8828C9.95083 11.6797 9.60969 11.3828 9.35969 10.9922C9.10969 10.6016 8.98469 10.1406 8.98469 9.60938C8.98469 8.72396 9.28156 8.09375 9.87531 7.71875C10.4743 7.34375 11.2347 7.1276 12.1566 7.07031C12.2816 7.05469 12.7764 7.02344 13.6409 6.97656L14.4925 6.94531L14.5081 8.15625ZM17.7584 3.51562H19.3678V4.875H19.4616C19.6126 4.40625 19.8834 4.04167 20.2741 3.78125C20.6647 3.51562 21.1048 3.38281 21.5944 3.38281C21.8548 3.38281 22.0944 3.39844 22.3131 3.42969V5.02344C22.2454 4.9974 22.123 4.97396 21.9459 4.95312C21.7689 4.92708 21.5996 4.91406 21.4381 4.91406C21.0631 4.91406 20.722 4.9974 20.4147 5.16406C20.1074 5.32552 19.8652 5.55208 19.6881 5.84375C19.511 6.13542 19.4225 6.46354 19.4225 6.82812V12H17.7584V3.51562ZM27.7041 4.84375H23.0634V3.51562H27.7041V4.84375ZM25.9853 1.48438V9.50781C25.9853 9.8099 26.0296 10.0417 26.1181 10.2031C26.2067 10.3646 26.3239 10.4766 26.4697 10.5391C26.6155 10.6016 26.79 10.6328 26.9931 10.6328C27.2431 10.6328 27.5218 10.6224 27.8291 10.6016V12.0391C27.5322 12.0859 27.1884 12.1094 26.7978 12.1094C26.3447 12.1094 25.928 12.026 25.5478 11.8594C25.1728 11.6875 24.8707 11.4323 24.6416 11.0938C24.4176 10.75 24.3056 10.3333 24.3056 9.84375V1.48438H25.9853ZM30.8762 12H29.2122V0.6875H30.8528V4.89844H30.9622C31.1653 4.42448 31.4726 4.05729 31.8841 3.79688C32.3007 3.53646 32.8294 3.40625 33.47 3.40625C34.0637 3.40625 34.5768 3.52865 35.0091 3.77344C35.4466 4.01302 35.7825 4.3724 36.0169 4.85156C36.2565 5.33073 36.3762 5.91406 36.3762 6.60156V12H34.7122V6.79688C34.7122 6.39062 34.6393 6.04167 34.4934 5.75C34.3476 5.45312 34.1393 5.22917 33.8684 5.07812C33.5976 4.92708 33.2747 4.85156 32.8997 4.85156C32.5039 4.85156 32.1549 4.9349 31.8528 5.10156C31.5559 5.26302 31.319 5.50521 31.1419 5.82812C30.9648 6.14583 30.8762 6.52604 30.8762 6.96875V12ZM38.2281 0.6875H42.2594C43.1135 0.6875 43.8349 0.846354 44.4234 1.16406C45.012 1.47656 45.4521 1.90885 45.7438 2.46094C46.0406 3.00781 46.1891 3.64062 46.1891 4.35938C46.1891 5.06771 46.0406 5.69792 45.7438 6.25C45.4469 6.80208 45.0042 7.23698 44.4156 7.55469C43.8271 7.8724 43.1057 8.03125 42.2516 8.03125H39.4703V6.57031H42.0875C42.6292 6.57031 43.0771 6.47656 43.4313 6.28906C43.7854 6.09635 44.0432 5.83594 44.2047 5.50781C44.3714 5.17448 44.4547 4.79167 44.4547 4.35938C44.4547 3.91667 44.3714 3.53125 44.2047 3.20312C44.0432 2.875 43.7828 2.61979 43.4234 2.4375C43.0693 2.25521 42.6214 2.16406 42.0797 2.16406H39.9469V12H38.2281V0.6875ZM52.58 8.15625C52.4446 8.15625 52.0201 8.18229 51.3066 8.23438L50.4628 8.29688C49.9003 8.33854 49.4628 8.46875 49.1503 8.6875C48.843 8.90625 48.6894 9.21875 48.6894 9.625C48.6894 9.89062 48.7571 10.1146 48.8925 10.2969C49.0279 10.474 49.218 10.612 49.4628 10.7109C49.7076 10.8047 49.9863 10.8516 50.2988 10.8516C50.7415 10.8516 51.1243 10.7656 51.4472 10.5938C51.7753 10.4167 52.0279 10.1823 52.205 9.89062C52.3821 9.59375 52.4706 9.27604 52.4706 8.9375L52.4628 6.26562C52.4628 5.94271 52.3977 5.66927 52.2675 5.44531C52.1425 5.21615 51.9498 5.04427 51.6894 4.92969C51.429 4.8099 51.1113 4.75 50.7363 4.75C50.2623 4.75 49.8743 4.84896 49.5722 5.04688C49.2753 5.23958 49.0826 5.5 48.9941 5.82812H47.3222C47.3795 5.35417 47.5566 4.9349 47.8534 4.57031C48.1503 4.20573 48.5514 3.92188 49.0566 3.71875C49.5618 3.51042 50.1399 3.40625 50.7909 3.40625C51.3378 3.40625 51.856 3.48958 52.3456 3.65625C52.8404 3.81771 53.2597 4.11979 53.6034 4.5625C53.9472 5 54.1191 5.60156 54.1191 6.36719V12H52.5019V10.8359H52.4394C52.3248 11.0703 52.1581 11.2891 51.9394 11.4922C51.7206 11.6953 51.4394 11.862 51.0956 11.9922C50.7571 12.1224 50.3665 12.1875 49.9238 12.1875C49.3769 12.1875 48.8873 12.0859 48.455 11.8828C48.0227 11.6797 47.6816 11.3828 47.4316 10.9922C47.1816 10.6016 47.0566 10.1406 47.0566 9.60938C47.0566 8.72396 47.3534 8.09375 47.9472 7.71875C48.5461 7.34375 49.3066 7.1276 50.2284 7.07031C50.3534 7.05469 50.8482 7.02344 51.7128 6.97656L52.5644 6.94531L52.58 8.15625ZM55.8303 3.51562H57.4475V4.88281H57.5881C57.7496 4.60677 57.9136 4.36979 58.0803 4.17188C58.247 3.97396 58.4918 3.79688 58.8147 3.64062C59.1428 3.48438 59.5491 3.40625 60.0334 3.40625C60.7157 3.40625 61.3251 3.58073 61.8616 3.92969C62.4032 4.27344 62.8251 4.77604 63.1272 5.4375C63.4293 6.09375 63.5803 6.8724 63.5803 7.77344C63.5803 8.66406 63.4293 9.44271 63.1272 10.1094C62.8303 10.7708 62.411 11.2786 61.8694 11.6328C61.3329 11.9818 60.7235 12.1562 60.0412 12.1562C59.5725 12.1562 59.1715 12.0781 58.8381 11.9219C58.51 11.7604 58.2574 11.5807 58.0803 11.3828C57.9032 11.1849 57.7392 10.9531 57.5881 10.6875H57.4944V15.1875H55.8303V3.51562ZM57.4553 7.75C57.4553 8.34375 57.5412 8.86719 57.7131 9.32031C57.885 9.76823 58.1376 10.1172 58.4709 10.3672C58.8043 10.6172 59.2053 10.7422 59.6741 10.7422C60.148 10.7422 60.5543 10.6146 60.8928 10.3594C61.2314 10.099 61.484 9.74479 61.6506 9.29688C61.8173 8.84375 61.9006 8.32812 61.9006 7.75C61.9006 7.18229 61.8173 6.67708 61.6506 6.23438C61.484 5.79167 61.234 5.44792 60.9006 5.20312C60.5673 4.95312 60.1584 4.82812 59.6741 4.82812C59.2001 4.82812 58.7965 4.94792 58.4631 5.1875C58.135 5.42708 57.885 5.76562 57.7131 6.20312C57.5412 6.64062 57.4553 7.15625 57.4553 7.75ZM68.5884 12.1719C67.7707 12.1719 67.0546 11.9922 66.44 11.6328C65.8306 11.2734 65.3619 10.7656 65.0338 10.1094C64.7056 9.45312 64.5416 8.6901 64.5416 7.82031C64.5416 6.95052 64.7056 6.18229 65.0338 5.51562C65.3619 4.84375 65.8228 4.32552 66.4166 3.96094C67.0103 3.59115 67.6952 3.40625 68.4713 3.40625C69.1588 3.40625 69.7864 3.55469 70.3541 3.85156C70.9218 4.14323 71.3775 4.60938 71.7213 5.25C72.065 5.88542 72.2369 6.6901 72.2369 7.66406V8.25H65.4791V7.00781H70.6041C70.6041 6.57552 70.5155 6.19271 70.3384 5.85938C70.1666 5.52083 69.9192 5.25521 69.5963 5.0625C69.2733 4.86979 68.9035 4.77344 68.4869 4.77344C68.0338 4.77344 67.6353 4.88281 67.2916 5.10156C66.9478 5.32031 66.6796 5.61458 66.4869 5.98438C66.2942 6.35417 66.1978 6.75 66.1978 7.17188V8.14062C66.1978 8.69792 66.2968 9.17708 66.4947 9.57812C66.6978 9.97917 66.9791 10.2839 67.3384 10.4922C67.703 10.7005 68.1223 10.8047 68.5963 10.8047C68.8983 10.8047 69.1718 10.763 69.4166 10.6797C69.6614 10.5911 69.8697 10.4818 70.0416 10.3516C70.2134 10.2161 70.3463 10.0573 70.44 9.875H72.1353C72.0103 10.3333 71.7864 10.7344 71.4634 11.0781C71.1405 11.4219 70.7317 11.6901 70.2369 11.8828C69.7473 12.0755 69.1978 12.1719 68.5884 12.1719ZM73.5653 3.51562H75.1747V4.875H75.2684C75.4195 4.40625 75.6903 4.04167 76.0809 3.78125C76.4716 3.51562 76.9117 3.38281 77.4013 3.38281C77.6617 3.38281 77.9013 3.39844 78.12 3.42969V5.02344C78.0523 4.9974 77.9299 4.97396 77.7528 4.95312C77.5757 4.92708 77.4065 4.91406 77.245 4.91406C76.87 4.91406 76.5289 4.9974 76.2216 5.16406C75.9143 5.32552 75.6721 5.55208 75.495 5.84375C75.3179 6.13542 75.2294 6.46354 75.2294 6.82812V12H73.5653V3.51562Z" fill="white"/>
</svg>
