<svg width="24" height="24" viewBox="0 0 24 24" fill="none" xmlns="http://www.w3.org/2000/svg">
<path fill-rule="evenodd" clip-rule="evenodd" d="M12 3C16.9706 3 21 7.02944 21 12C21 16.9706 16.9706 21 12 21C7.02944 21 3 16.9706 3 12C3 7.02944 7.02944 3 12 3ZM9.62695 13C9.72823 14.8943 10.1105 16.5364 10.6338 17.7139C10.9414 18.406 11.266 18.8674 11.5459 19.1338C11.8175 19.3923 11.9683 19.4004 12 19.4004C12.0317 19.4004 12.1825 19.3923 12.4541 19.1338C12.734 18.8674 13.0586 18.406 13.3662 17.7139C13.8895 16.5364 14.2718 14.8943 14.373 13H9.62695ZM4.66895 13C5.04103 15.7533 6.92537 18.0258 9.45996 18.9521C8.67625 17.5007 8.1429 15.3917 8.02539 13H4.66895ZM15.9746 13C15.8571 15.3919 15.3229 17.5007 14.5391 18.9521C17.0741 18.026 18.9589 15.7536 19.3311 13H15.9746ZM9.45996 5.04688C6.8033 6.01773 4.86119 8.46825 4.62598 11.4004H8.00977C8.08451 8.84385 8.63256 6.57877 9.45996 5.04688ZM12 4.59961C11.9683 4.59961 11.8175 4.60769 11.5459 4.86621C11.266 5.13258 10.9414 5.59402 10.6338 6.28613C10.074 7.54579 9.67586 9.33732 9.61035 11.4004H14.3896C14.3241 9.33732 13.926 7.54579 13.3662 6.28613C13.0586 5.59402 12.734 5.13258 12.4541 4.86621C12.1825 4.60769 12.0317 4.59961 12 4.59961ZM14.5391 5.04688C15.3666 6.57877 15.9155 8.84362 15.9902 11.4004H19.374C19.1388 8.46794 17.1962 6.01751 14.5391 5.04688Z" fill="white"/>
</svg>
