<svg width="24" height="24" viewBox="0 0 24 24" fill="none" xmlns="http://www.w3.org/2000/svg">
<path d="M4.5 6C3.94772 6 3.5 6.44772 3.5 7C3.5 7.55228 3.94772 8 4.5 8H19.5C20.0523 8 20.5 7.55228 20.5 7C20.5 6.44772 20.0523 6 19.5 6H4.5Z" fill="white"/>
<path d="M4.5 9.33334C3.94772 9.33334 3.5 9.78106 3.5 10.3333C3.5 10.8856 3.94772 11.3333 4.5 11.3333H19.5C20.0523 11.3333 20.5 10.8856 20.5 10.3333C20.5 9.78106 20.0523 9.33334 19.5 9.33334H4.5Z" fill="white"/>
<path d="M3.5 13.6667C3.5 13.1144 3.94772 12.6667 4.5 12.6667H19.5C20.0523 12.6667 20.5 13.1144 20.5 13.6667C20.5 14.2189 20.0523 14.6667 19.5 14.6667H4.5C3.94772 14.6667 3.5 14.2189 3.5 13.6667Z" fill="white"/>
<path d="M4.5 16C3.94772 16 3.5 16.4477 3.5 17C3.5 17.5523 3.94772 18 4.5 18H19.5C20.0523 18 20.5 17.5523 20.5 17C20.5 16.4477 20.0523 16 19.5 16H4.5Z" fill="white"/>
</svg>
