<svg width="13" height="12" viewBox="0 0 13 12" fill="none" xmlns="http://www.w3.org/2000/svg">
<path d="M2.375 12H0.65625V0.6875H2.375V12ZM4.3675 0.6875H8.39875C9.26333 0.6875 9.98729 0.835938 10.5706 1.13281C11.1592 1.42448 11.5993 1.83854 11.8909 2.375C12.1826 2.91146 12.3284 3.53385 12.3284 4.24219C12.3284 4.9401 12.1826 5.55208 11.8909 6.07812C11.5993 6.59896 11.1566 7.00521 10.5628 7.29688C9.97427 7.58854 9.25031 7.73438 8.39094 7.73438H5.33625V6.24219H8.22688C8.77896 6.24219 9.22948 6.16406 9.57844 6.00781C9.9274 5.85156 10.1826 5.625 10.3441 5.32812C10.5107 5.03125 10.5941 4.66927 10.5941 4.24219C10.5941 3.79948 10.5107 3.42448 10.3441 3.11719C10.1826 2.80469 9.92479 2.56771 9.57063 2.40625C9.21646 2.24479 8.76594 2.16406 8.21906 2.16406H6.08625V12H4.3675V0.6875ZM12.7503 12H10.7894L8.055 6.89844H9.96125L12.7503 12Z" fill="white"/>
</svg>
