<svg width="80" height="16" viewBox="0 0 80 16" fill="none" xmlns="http://www.w3.org/2000/svg">
<path d="M9.78906 12H8.21094L2.47656 3.72656H2.375V12H0.65625V0.6875H2.25L7.97656 8.96875H8.07812V0.6875H9.78906V12ZM16.7581 8.15625C16.6227 8.15625 16.1982 8.18229 15.4847 8.23438L14.6409 8.29688C14.0784 8.33854 13.6409 8.46875 13.3284 8.6875C13.0211 8.90625 12.8675 9.21875 12.8675 9.625C12.8675 9.89062 12.9352 10.1146 13.0706 10.2969C13.206 10.474 13.3961 10.612 13.6409 10.7109C13.8857 10.8047 14.1644 10.8516 14.4769 10.8516C14.9196 10.8516 15.3024 10.7656 15.6253 10.5938C15.9534 10.4167 16.206 10.1823 16.3831 9.89062C16.5602 9.59375 16.6488 9.27604 16.6488 8.9375L16.6409 6.26562C16.6409 5.94271 16.5758 5.66927 16.4456 5.44531C16.3206 5.21615 16.1279 5.04427 15.8675 4.92969C15.6071 4.8099 15.2894 4.75 14.9144 4.75C14.4404 4.75 14.0524 4.84896 13.7503 5.04688C13.4534 5.23958 13.2607 5.5 13.1722 5.82812H11.5003C11.5576 5.35417 11.7347 4.9349 12.0316 4.57031C12.3284 4.20573 12.7295 3.92188 13.2347 3.71875C13.7399 3.51042 14.318 3.40625 14.9691 3.40625C15.5159 3.40625 16.0342 3.48958 16.5238 3.65625C17.0185 3.81771 17.4378 4.11979 17.7816 4.5625C18.1253 5 18.2972 5.60156 18.2972 6.36719V12H16.68V10.8359H16.6175C16.5029 11.0703 16.3363 11.2891 16.1175 11.4922C15.8988 11.6953 15.6175 11.862 15.2738 11.9922C14.9352 12.1224 14.5446 12.1875 14.1019 12.1875C13.555 12.1875 13.0654 12.0859 12.6331 11.8828C12.2008 11.6797 11.8597 11.3828 11.6097 10.9922C11.3597 10.6016 11.2347 10.1406 11.2347 9.60938C11.2347 8.72396 11.5316 8.09375 12.1253 7.71875C12.7243 7.34375 13.4847 7.1276 14.4066 7.07031C14.5316 7.05469 15.0264 7.02344 15.8909 6.97656L16.7425 6.94531L16.7581 8.15625ZM20.0084 3.51562H21.6178V4.875H21.7116C21.8626 4.40625 22.1334 4.04167 22.5241 3.78125C22.9147 3.51562 23.3548 3.38281 23.8444 3.38281C24.1048 3.38281 24.3444 3.39844 24.5631 3.42969V5.02344C24.4954 4.9974 24.373 4.97396 24.1959 4.95312C24.0189 4.92708 23.8496 4.91406 23.6881 4.91406C23.3131 4.91406 22.972 4.9974 22.6647 5.16406C22.3574 5.32552 22.1152 5.55208 21.9381 5.84375C21.761 6.13542 21.6725 6.46354 21.6725 6.82812V12H20.0084V3.51562ZM30.5244 8.15625C30.389 8.15625 29.9645 8.18229 29.2509 8.23438L28.4072 8.29688C27.8447 8.33854 27.4072 8.46875 27.0947 8.6875C26.7874 8.90625 26.6338 9.21875 26.6338 9.625C26.6338 9.89062 26.7015 10.1146 26.8369 10.2969C26.9723 10.474 27.1624 10.612 27.4072 10.7109C27.652 10.8047 27.9306 10.8516 28.2431 10.8516C28.6858 10.8516 29.0686 10.7656 29.3916 10.5938C29.7197 10.4167 29.9723 10.1823 30.1494 9.89062C30.3265 9.59375 30.415 9.27604 30.415 8.9375L30.4072 6.26562C30.4072 5.94271 30.3421 5.66927 30.2119 5.44531C30.0869 5.21615 29.8942 5.04427 29.6338 4.92969C29.3733 4.8099 29.0556 4.75 28.6806 4.75C28.2067 4.75 27.8186 4.84896 27.5166 5.04688C27.2197 5.23958 27.027 5.5 26.9384 5.82812H25.2666C25.3239 5.35417 25.5009 4.9349 25.7978 4.57031C26.0947 4.20573 26.4957 3.92188 27.0009 3.71875C27.5061 3.51042 28.0843 3.40625 28.7353 3.40625C29.2822 3.40625 29.8004 3.48958 30.29 3.65625C30.7848 3.81771 31.2041 4.11979 31.5478 4.5625C31.8916 5 32.0634 5.60156 32.0634 6.36719V12H30.4463V10.8359H30.3838C30.2692 11.0703 30.1025 11.2891 29.8838 11.4922C29.665 11.6953 29.3838 11.862 29.04 11.9922C28.7015 12.1224 28.3108 12.1875 27.8681 12.1875C27.3213 12.1875 26.8317 12.0859 26.3994 11.8828C25.9671 11.6797 25.6259 11.3828 25.3759 10.9922C25.1259 10.6016 25.0009 10.1406 25.0009 9.60938C25.0009 8.72396 25.2978 8.09375 25.8916 7.71875C26.4905 7.34375 27.2509 7.1276 28.1728 7.07031C28.2978 7.05469 28.7926 7.02344 29.6572 6.97656L30.5088 6.94531L30.5244 8.15625ZM43.65 3.66406C43.6083 3.32031 43.4885 3.02344 43.2906 2.77344C43.0927 2.52344 42.8245 2.33594 42.4859 2.21094C42.1526 2.08594 41.7672 2.02344 41.3297 2.02344C40.8766 2.02344 40.4781 2.09375 40.1344 2.23438C39.7906 2.375 39.525 2.57292 39.3375 2.82812C39.15 3.07812 39.0563 3.36458 39.0563 3.6875C39.0563 4.16146 39.2516 4.52604 39.6422 4.78125C40.0328 5.03646 40.525 5.23958 41.1188 5.39062L42.2047 5.67969C43.1474 5.90885 43.926 6.26823 44.5406 6.75781C45.1604 7.2474 45.4703 7.95312 45.4703 8.875C45.4703 9.51042 45.3036 10.0807 44.9703 10.5859C44.6422 11.0859 44.1604 11.4792 43.525 11.7656C42.8948 12.0469 42.1448 12.1875 41.275 12.1875C40.4365 12.1875 39.7047 12.0547 39.0797 11.7891C38.4547 11.5182 37.9677 11.1354 37.6188 10.6406C37.2698 10.1406 37.0771 9.54948 37.0406 8.86719H38.7594C38.7958 9.25781 38.9286 9.58854 39.1578 9.85938C39.387 10.1302 39.6839 10.3333 40.0484 10.4688C40.413 10.6042 40.8193 10.6719 41.2672 10.6719C41.7464 10.6719 42.176 10.5964 42.5563 10.4453C42.9365 10.2943 43.2333 10.0807 43.4469 9.80469C43.6604 9.52344 43.7672 9.20312 43.7672 8.84375C43.7672 8.53125 43.6786 8.26823 43.5016 8.05469C43.3245 7.84115 43.0823 7.66667 42.775 7.53125C42.4729 7.39062 42.0927 7.25781 41.6344 7.13281L40.2906 6.78125C39.3427 6.52083 38.6161 6.14844 38.1109 5.66406C37.6057 5.17448 37.3531 4.54688 37.3531 3.78125C37.3531 3.14062 37.5276 2.57552 37.8766 2.08594C38.2307 1.59635 38.7099 1.21615 39.3141 0.945312C39.9234 0.669271 40.6083 0.53125 41.3688 0.53125C42.124 0.53125 42.7958 0.666667 43.3844 0.9375C43.9781 1.20312 44.4443 1.57292 44.7828 2.04688C45.1214 2.52083 45.2984 3.0599 45.3141 3.66406H43.65ZM46.8847 3.51562H48.5019V4.88281H48.6425C48.804 4.60677 48.968 4.36979 49.1347 4.17188C49.3014 3.97396 49.5461 3.79688 49.8691 3.64062C50.1972 3.48438 50.6034 3.40625 51.0878 3.40625C51.7701 3.40625 52.3795 3.58073 52.9159 3.92969C53.4576 4.27344 53.8795 4.77604 54.1816 5.4375C54.4836 6.09375 54.6347 6.8724 54.6347 7.77344C54.6347 8.66406 54.4836 9.44271 54.1816 10.1094C53.8847 10.7708 53.4654 11.2786 52.9238 11.6328C52.3873 11.9818 51.7779 12.1562 51.0956 12.1562C50.6269 12.1562 50.2258 12.0781 49.8925 11.9219C49.5644 11.7604 49.3118 11.5807 49.1347 11.3828C48.9576 11.1849 48.7935 10.9531 48.6425 10.6875H48.5488V15.1875H46.8847V3.51562ZM48.5097 7.75C48.5097 8.34375 48.5956 8.86719 48.7675 9.32031C48.9394 9.76823 49.192 10.1172 49.5253 10.3672C49.8586 10.6172 50.2597 10.7422 50.7284 10.7422C51.2024 10.7422 51.6086 10.6146 51.9472 10.3594C52.2857 10.099 52.5383 9.74479 52.705 9.29688C52.8717 8.84375 52.955 8.32812 52.955 7.75C52.955 7.18229 52.8717 6.67708 52.705 6.23438C52.5383 5.79167 52.2883 5.44792 51.955 5.20312C51.6217 4.95312 51.2128 4.82812 50.7284 4.82812C50.2545 4.82812 49.8508 4.94792 49.5175 5.1875C49.1894 5.42708 48.9394 5.76562 48.7675 6.20312C48.5956 6.64062 48.5097 7.15625 48.5097 7.75ZM61.1037 8.15625C60.9683 8.15625 60.5439 8.18229 59.8303 8.23438L58.9866 8.29688C58.4241 8.33854 57.9866 8.46875 57.6741 8.6875C57.3668 8.90625 57.2131 9.21875 57.2131 9.625C57.2131 9.89062 57.2808 10.1146 57.4162 10.2969C57.5517 10.474 57.7418 10.612 57.9866 10.7109C58.2314 10.8047 58.51 10.8516 58.8225 10.8516C59.2652 10.8516 59.648 10.7656 59.9709 10.5938C60.2991 10.4167 60.5517 10.1823 60.7287 9.89062C60.9058 9.59375 60.9944 9.27604 60.9944 8.9375L60.9866 6.26562C60.9866 5.94271 60.9215 5.66927 60.7912 5.44531C60.6662 5.21615 60.4735 5.04427 60.2131 4.92969C59.9527 4.8099 59.635 4.75 59.26 4.75C58.786 4.75 58.398 4.84896 58.0959 5.04688C57.7991 5.23958 57.6064 5.5 57.5178 5.82812H55.8459C55.9032 5.35417 56.0803 4.9349 56.3772 4.57031C56.6741 4.20573 57.0751 3.92188 57.5803 3.71875C58.0855 3.51042 58.6636 3.40625 59.3147 3.40625C59.8616 3.40625 60.3798 3.48958 60.8694 3.65625C61.3642 3.81771 61.7834 4.11979 62.1272 4.5625C62.4709 5 62.6428 5.60156 62.6428 6.36719V12H61.0256V10.8359H60.9631C60.8485 11.0703 60.6819 11.2891 60.4631 11.4922C60.2444 11.6953 59.9631 11.862 59.6194 11.9922C59.2808 12.1224 58.8902 12.1875 58.4475 12.1875C57.9006 12.1875 57.411 12.0859 56.9787 11.8828C56.5465 11.6797 56.2053 11.3828 55.9553 10.9922C55.7053 10.6016 55.5803 10.1406 55.5803 9.60938C55.5803 8.72396 55.8772 8.09375 56.4709 7.71875C57.0699 7.34375 57.8303 7.1276 58.7522 7.07031C58.8772 7.05469 59.372 7.02344 60.2366 6.97656L61.0881 6.94531L61.1037 8.15625ZM67.94 12.1719C67.1327 12.1719 66.427 11.9844 65.8228 11.6094C65.2239 11.2344 64.7629 10.7161 64.44 10.0547C64.1223 9.39323 63.9634 8.64062 63.9634 7.79688C63.9634 6.9375 64.1275 6.17708 64.4556 5.51562C64.7837 4.84896 65.2447 4.33073 65.8384 3.96094C66.4322 3.59115 67.1223 3.40625 67.9087 3.40625C68.5546 3.40625 69.1327 3.52344 69.6431 3.75781C70.1535 3.99219 70.5624 4.32552 70.8697 4.75781C71.177 5.1901 71.3619 5.6901 71.4244 6.25781H69.7994C69.7421 5.98698 69.6301 5.74219 69.4634 5.52344C69.302 5.29948 69.0936 5.1224 68.8384 4.99219C68.5832 4.86198 68.2864 4.79688 67.9478 4.79688C67.4895 4.79688 67.0858 4.91667 66.7369 5.15625C66.3931 5.39583 66.1249 5.73698 65.9322 6.17969C65.7395 6.6224 65.6431 7.14583 65.6431 7.75C65.6431 8.35938 65.7369 8.89062 65.9244 9.34375C66.1171 9.79167 66.3853 10.138 66.7291 10.3828C67.0728 10.6276 67.4791 10.75 67.9478 10.75C68.2603 10.75 68.5442 10.6953 68.7994 10.5859C69.0598 10.4714 69.2759 10.3047 69.4478 10.0859C69.6197 9.86719 69.7369 9.60677 69.7994 9.30469H71.4244C71.3619 9.85677 71.1796 10.349 70.8775 10.7812C70.5806 11.2135 70.1796 11.5547 69.6744 11.8047C69.1692 12.0495 68.591 12.1719 67.94 12.1719ZM76.3466 12.1719C75.5289 12.1719 74.8127 11.9922 74.1981 11.6328C73.5888 11.2734 73.12 10.7656 72.7919 10.1094C72.4638 9.45312 72.2997 8.6901 72.2997 7.82031C72.2997 6.95052 72.4638 6.18229 72.7919 5.51562C73.12 4.84375 73.5809 4.32552 74.1747 3.96094C74.7684 3.59115 75.4533 3.40625 76.2294 3.40625C76.9169 3.40625 77.5445 3.55469 78.1122 3.85156C78.6799 4.14323 79.1356 4.60938 79.4794 5.25C79.8231 5.88542 79.995 6.6901 79.995 7.66406V8.25H73.2372V7.00781H78.3622C78.3622 6.57552 78.2736 6.19271 78.0966 5.85938C77.9247 5.52083 77.6773 5.25521 77.3544 5.0625C77.0315 4.86979 76.6617 4.77344 76.245 4.77344C75.7919 4.77344 75.3934 4.88281 75.0497 5.10156C74.7059 5.32031 74.4377 5.61458 74.245 5.98438C74.0523 6.35417 73.9559 6.75 73.9559 7.17188V8.14062C73.9559 8.69792 74.0549 9.17708 74.2528 9.57812C74.4559 9.97917 74.7372 10.2839 75.0966 10.4922C75.4611 10.7005 75.8804 10.8047 76.3544 10.8047C76.6565 10.8047 76.9299 10.763 77.1747 10.6797C77.4195 10.5911 77.6278 10.4818 77.7997 10.3516C77.9716 10.2161 78.1044 10.0573 78.1981 9.875H79.8934C79.7684 10.3333 79.5445 10.7344 79.2216 11.0781C78.8986 11.4219 78.4898 11.6901 77.995 11.8828C77.5054 12.0755 76.9559 12.1719 76.3466 12.1719Z" fill="white"/>
</svg>
