<svg width="76" height="16" viewBox="0 0 76 16" fill="none" xmlns="http://www.w3.org/2000/svg">
<path d="M6.8125 3.66406C6.77083 3.32031 6.65104 3.02344 6.45312 2.77344C6.25521 2.52344 5.98698 2.33594 5.64844 2.21094C5.3151 2.08594 4.92969 2.02344 4.49219 2.02344C4.03906 2.02344 3.64062 2.09375 3.29688 2.23438C2.95312 2.375 2.6875 2.57292 2.5 2.82812C2.3125 3.07812 2.21875 3.36458 2.21875 3.6875C2.21875 4.16146 2.41406 4.52604 2.80469 4.78125C3.19531 5.03646 3.6875 5.23958 4.28125 5.39062L5.36719 5.67969C6.3099 5.90885 7.08854 6.26823 7.70312 6.75781C8.32292 7.2474 8.63281 7.95312 8.63281 8.875C8.63281 9.51042 8.46615 10.0807 8.13281 10.5859C7.80469 11.0859 7.32292 11.4792 6.6875 11.7656C6.05729 12.0469 5.30729 12.1875 4.4375 12.1875C3.59896 12.1875 2.86719 12.0547 2.24219 11.7891C1.61719 11.5182 1.13021 11.1354 0.78125 10.6406C0.432292 10.1406 0.239583 9.54948 0.203125 8.86719H1.92188C1.95833 9.25781 2.09115 9.58854 2.32031 9.85938C2.54948 10.1302 2.84635 10.3333 3.21094 10.4688C3.57552 10.6042 3.98177 10.6719 4.42969 10.6719C4.90885 10.6719 5.33854 10.5964 5.71875 10.4453C6.09896 10.2943 6.39583 10.0807 6.60938 9.80469C6.82292 9.52344 6.92969 9.20312 6.92969 8.84375C6.92969 8.53125 6.84115 8.26823 6.66406 8.05469C6.48698 7.84115 6.24479 7.66667 5.9375 7.53125C5.63542 7.39062 5.25521 7.25781 4.79688 7.13281L3.45312 6.78125C2.50521 6.52083 1.77865 6.14844 1.27344 5.66406C0.768229 5.17448 0.515625 4.54688 0.515625 3.78125C0.515625 3.14062 0.690104 2.57552 1.03906 2.08594C1.39323 1.59635 1.8724 1.21615 2.47656 0.945312C3.08594 0.669271 3.77083 0.53125 4.53125 0.53125C5.28646 0.53125 5.95833 0.666667 6.54688 0.9375C7.14062 1.20312 7.60677 1.57292 7.94531 2.04688C8.28385 2.52083 8.46094 3.0599 8.47656 3.66406H6.8125ZM10.0472 3.51562H11.6644V4.88281H11.805C11.9665 4.60677 12.1305 4.36979 12.2972 4.17188C12.4639 3.97396 12.7086 3.79688 13.0316 3.64062C13.3597 3.48438 13.7659 3.40625 14.2503 3.40625C14.9326 3.40625 15.542 3.58073 16.0784 3.92969C16.6201 4.27344 17.042 4.77604 17.3441 5.4375C17.6461 6.09375 17.7972 6.8724 17.7972 7.77344C17.7972 8.66406 17.6461 9.44271 17.3441 10.1094C17.0472 10.7708 16.6279 11.2786 16.0863 11.6328C15.5498 11.9818 14.9404 12.1562 14.2581 12.1562C13.7894 12.1562 13.3883 12.0781 13.055 11.9219C12.7269 11.7604 12.4743 11.5807 12.2972 11.3828C12.1201 11.1849 11.956 10.9531 11.805 10.6875H11.7113V15.1875H10.0472V3.51562ZM11.6722 7.75C11.6722 8.34375 11.7581 8.86719 11.93 9.32031C12.1019 9.76823 12.3545 10.1172 12.6878 10.3672C13.0211 10.6172 13.4222 10.7422 13.8909 10.7422C14.3649 10.7422 14.7711 10.6146 15.1097 10.3594C15.4482 10.099 15.7008 9.74479 15.8675 9.29688C16.0342 8.84375 16.1175 8.32812 16.1175 7.75C16.1175 7.18229 16.0342 6.67708 15.8675 6.23438C15.7008 5.79167 15.4508 5.44792 15.1175 5.20312C14.7842 4.95312 14.3753 4.82812 13.8909 4.82812C13.417 4.82812 13.0133 4.94792 12.68 5.1875C12.3519 5.42708 12.1019 5.76562 11.93 6.20312C11.7581 6.64062 11.6722 7.15625 11.6722 7.75ZM24.2663 8.15625C24.1308 8.15625 23.7064 8.18229 22.9928 8.23438L22.1491 8.29688C21.5866 8.33854 21.1491 8.46875 20.8366 8.6875C20.5293 8.90625 20.3756 9.21875 20.3756 9.625C20.3756 9.89062 20.4433 10.1146 20.5788 10.2969C20.7142 10.474 20.9043 10.612 21.1491 10.7109C21.3939 10.8047 21.6725 10.8516 21.985 10.8516C22.4277 10.8516 22.8105 10.7656 23.1334 10.5938C23.4616 10.4167 23.7142 10.1823 23.8913 9.89062C24.0683 9.59375 24.1569 9.27604 24.1569 8.9375L24.1491 6.26562C24.1491 5.94271 24.084 5.66927 23.9538 5.44531C23.8288 5.21615 23.636 5.04427 23.3756 4.92969C23.1152 4.8099 22.7975 4.75 22.4225 4.75C21.9485 4.75 21.5605 4.84896 21.2584 5.04688C20.9616 5.23958 20.7689 5.5 20.6803 5.82812H19.0084C19.0657 5.35417 19.2428 4.9349 19.5397 4.57031C19.8366 4.20573 20.2376 3.92188 20.7428 3.71875C21.248 3.51042 21.8261 3.40625 22.4772 3.40625C23.0241 3.40625 23.5423 3.48958 24.0319 3.65625C24.5267 3.81771 24.9459 4.11979 25.2897 4.5625C25.6334 5 25.8053 5.60156 25.8053 6.36719V12H24.1881V10.8359H24.1256C24.011 11.0703 23.8444 11.2891 23.6256 11.4922C23.4069 11.6953 23.1256 11.862 22.7819 11.9922C22.4433 12.1224 22.0527 12.1875 21.61 12.1875C21.0631 12.1875 20.5735 12.0859 20.1413 11.8828C19.709 11.6797 19.3678 11.3828 19.1178 10.9922C18.8678 10.6016 18.7428 10.1406 18.7428 9.60938C18.7428 8.72396 19.0397 8.09375 19.6334 7.71875C20.2324 7.34375 20.9928 7.1276 21.9147 7.07031C22.0397 7.05469 22.5345 7.02344 23.3991 6.97656L24.2506 6.94531L24.2663 8.15625ZM31.1025 12.1719C30.2952 12.1719 29.5895 11.9844 28.9853 11.6094C28.3864 11.2344 27.9254 10.7161 27.6025 10.0547C27.2848 9.39323 27.1259 8.64062 27.1259 7.79688C27.1259 6.9375 27.29 6.17708 27.6181 5.51562C27.9463 4.84896 28.4072 4.33073 29.0009 3.96094C29.5947 3.59115 30.2848 3.40625 31.0713 3.40625C31.7171 3.40625 32.2952 3.52344 32.8056 3.75781C33.316 3.99219 33.7249 4.32552 34.0322 4.75781C34.3395 5.1901 34.5244 5.6901 34.5869 6.25781H32.9619C32.9046 5.98698 32.7926 5.74219 32.6259 5.52344C32.4645 5.29948 32.2561 5.1224 32.0009 4.99219C31.7457 4.86198 31.4489 4.79688 31.1103 4.79688C30.652 4.79688 30.2483 4.91667 29.8994 5.15625C29.5556 5.39583 29.2874 5.73698 29.0947 6.17969C28.902 6.6224 28.8056 7.14583 28.8056 7.75C28.8056 8.35938 28.8994 8.89062 29.0869 9.34375C29.2796 9.79167 29.5478 10.138 29.8916 10.3828C30.2353 10.6276 30.6416 10.75 31.1103 10.75C31.4228 10.75 31.7067 10.6953 31.9619 10.5859C32.2223 10.4714 32.4384 10.3047 32.6103 10.0859C32.7822 9.86719 32.8994 9.60677 32.9619 9.30469H34.5869C34.5244 9.85677 34.3421 10.349 34.04 10.7812C33.7431 11.2135 33.3421 11.5547 32.8369 11.8047C32.3317 12.0495 31.7535 12.1719 31.1025 12.1719ZM39.5091 12.1719C38.6914 12.1719 37.9752 11.9922 37.3606 11.6328C36.7513 11.2734 36.2825 10.7656 35.9544 10.1094C35.6263 9.45312 35.4622 8.6901 35.4622 7.82031C35.4622 6.95052 35.6263 6.18229 35.9544 5.51562C36.2825 4.84375 36.7434 4.32552 37.3372 3.96094C37.9309 3.59115 38.6158 3.40625 39.3919 3.40625C40.0794 3.40625 40.707 3.55469 41.2747 3.85156C41.8424 4.14323 42.2981 4.60938 42.6419 5.25C42.9856 5.88542 43.1575 6.6901 43.1575 7.66406V8.25H36.3997V7.00781H41.5247C41.5247 6.57552 41.4361 6.19271 41.2591 5.85938C41.0872 5.52083 40.8398 5.25521 40.5169 5.0625C40.194 4.86979 39.8242 4.77344 39.4075 4.77344C38.9544 4.77344 38.5559 4.88281 38.2122 5.10156C37.8684 5.32031 37.6002 5.61458 37.4075 5.98438C37.2148 6.35417 37.1184 6.75 37.1184 7.17188V8.14062C37.1184 8.69792 37.2174 9.17708 37.4153 9.57812C37.6184 9.97917 37.8997 10.2839 38.2591 10.4922C38.6236 10.7005 39.0429 10.8047 39.5169 10.8047C39.819 10.8047 40.0924 10.763 40.3372 10.6797C40.582 10.5911 40.7903 10.4818 40.9622 10.3516C41.1341 10.2161 41.2669 10.0573 41.3606 9.875H43.0559C42.9309 10.3333 42.707 10.7344 42.3841 11.0781C42.0611 11.4219 41.6523 11.6901 41.1575 11.8828C40.6679 12.0755 40.1184 12.1719 39.5091 12.1719ZM48.0719 12.1719C47.2646 12.1719 46.5589 11.9844 45.9547 11.6094C45.3557 11.2344 44.8948 10.7161 44.5719 10.0547C44.2542 9.39323 44.0953 8.64062 44.0953 7.79688C44.0953 6.9375 44.2594 6.17708 44.5875 5.51562C44.9156 4.84896 45.3766 4.33073 45.9703 3.96094C46.5641 3.59115 47.2542 3.40625 48.0406 3.40625C48.6865 3.40625 49.2646 3.52344 49.775 3.75781C50.2854 3.99219 50.6943 4.32552 51.0016 4.75781C51.3089 5.1901 51.4938 5.6901 51.5563 6.25781H49.9313C49.874 5.98698 49.762 5.74219 49.5953 5.52344C49.4339 5.29948 49.2255 5.1224 48.9703 4.99219C48.7151 4.86198 48.4182 4.79688 48.0797 4.79688C47.6214 4.79688 47.2177 4.91667 46.8688 5.15625C46.525 5.39583 46.2568 5.73698 46.0641 6.17969C45.8714 6.6224 45.775 7.14583 45.775 7.75C45.775 8.35938 45.8688 8.89062 46.0563 9.34375C46.249 9.79167 46.5172 10.138 46.8609 10.3828C47.2047 10.6276 47.6109 10.75 48.0797 10.75C48.3922 10.75 48.676 10.6953 48.9313 10.5859C49.1917 10.4714 49.4078 10.3047 49.5797 10.0859C49.7516 9.86719 49.8688 9.60677 49.9313 9.30469H51.5563C51.4938 9.85677 51.3115 10.349 51.0094 10.7812C50.7125 11.2135 50.3115 11.5547 49.8063 11.8047C49.301 12.0495 48.7229 12.1719 48.0719 12.1719ZM52.8222 3.51562H54.4316V4.875H54.5253C54.6764 4.40625 54.9472 4.04167 55.3378 3.78125C55.7284 3.51562 56.1685 3.38281 56.6581 3.38281C56.9185 3.38281 57.1581 3.39844 57.3769 3.42969V5.02344C57.3092 4.9974 57.1868 4.97396 57.0097 4.95312C56.8326 4.92708 56.6633 4.91406 56.5019 4.91406C56.1269 4.91406 55.7857 4.9974 55.4784 5.16406C55.1711 5.32552 54.929 5.55208 54.7519 5.84375C54.5748 6.13542 54.4863 6.46354 54.4863 6.82812V12H52.8222V3.51562ZM63.3381 8.15625C63.2027 8.15625 62.7782 8.18229 62.0647 8.23438L61.2209 8.29688C60.6584 8.33854 60.2209 8.46875 59.9084 8.6875C59.6011 8.90625 59.4475 9.21875 59.4475 9.625C59.4475 9.89062 59.5152 10.1146 59.6506 10.2969C59.786 10.474 59.9761 10.612 60.2209 10.7109C60.4657 10.8047 60.7444 10.8516 61.0569 10.8516C61.4996 10.8516 61.8824 10.7656 62.2053 10.5938C62.5334 10.4167 62.786 10.1823 62.9631 9.89062C63.1402 9.59375 63.2287 9.27604 63.2287 8.9375L63.2209 6.26562C63.2209 5.94271 63.1558 5.66927 63.0256 5.44531C62.9006 5.21615 62.7079 5.04427 62.4475 4.92969C62.1871 4.8099 61.8694 4.75 61.4944 4.75C61.0204 4.75 60.6324 4.84896 60.3303 5.04688C60.0334 5.23958 59.8407 5.5 59.7522 5.82812H58.0803C58.1376 5.35417 58.3147 4.9349 58.6116 4.57031C58.9084 4.20573 59.3095 3.92188 59.8147 3.71875C60.3199 3.51042 60.898 3.40625 61.5491 3.40625C62.0959 3.40625 62.6142 3.48958 63.1037 3.65625C63.5985 3.81771 64.0178 4.11979 64.3616 4.5625C64.7053 5 64.8772 5.60156 64.8772 6.36719V12H63.26V10.8359H63.1975C63.0829 11.0703 62.9162 11.2891 62.6975 11.4922C62.4787 11.6953 62.1975 11.862 61.8537 11.9922C61.5152 12.1224 61.1246 12.1875 60.6819 12.1875C60.135 12.1875 59.6454 12.0859 59.2131 11.8828C58.7808 11.6797 58.4397 11.3828 58.1897 10.9922C57.9397 10.6016 57.8147 10.1406 57.8147 9.60938C57.8147 8.72396 58.1116 8.09375 58.7053 7.71875C59.3043 7.34375 60.0647 7.1276 60.9866 7.07031C61.1116 7.05469 61.6064 7.02344 62.4709 6.97656L63.3225 6.94531L63.3381 8.15625ZM70.6275 4.84375H65.8228V3.51562H70.6275V4.84375ZM67.1353 2.53125C67.1353 2.03125 67.2395 1.60417 67.4478 1.25C67.6561 0.895833 67.9504 0.625 68.3306 0.4375C68.7108 0.25 69.1588 0.15625 69.6744 0.15625C69.8671 0.15625 70.0598 0.166667 70.2525 0.1875C70.4452 0.203125 70.6301 0.229167 70.8072 0.265625V1.65625C70.5311 1.61458 70.2942 1.59375 70.0963 1.59375C69.6588 1.59375 69.3358 1.6875 69.1275 1.875C68.9192 2.0625 68.815 2.35938 68.815 2.76562V12H67.1353V2.53125ZM75.7684 4.84375H71.1278V3.51562H75.7684V4.84375ZM74.0497 1.48438V9.50781C74.0497 9.8099 74.094 10.0417 74.1825 10.2031C74.271 10.3646 74.3882 10.4766 74.5341 10.5391C74.6799 10.6016 74.8544 10.6328 75.0575 10.6328C75.3075 10.6328 75.5861 10.6224 75.8934 10.6016V12.0391C75.5966 12.0859 75.2528 12.1094 74.8622 12.1094C74.4091 12.1094 73.9924 12.026 73.6122 11.8594C73.2372 11.6875 72.9351 11.4323 72.7059 11.0938C72.482 10.75 72.37 10.3333 72.37 9.84375V1.48438H74.0497Z" fill="white"/>
</svg>
